<svg width="1920" height="1070" viewBox="0 0 1920 1070" fill="none" xmlns="http://www.w3.org/2000/svg">
<path fill-rule="evenodd" clip-rule="evenodd" d="M473.5 1380C720.647 1380 921 1179.65 921 932.5C921 800.376 602.153 909.916 511.095 828C431.823 756.687 588.523 485 473.5 485C226.353 485 26 685.353 26 932.5C26 1179.65 226.353 1380 473.5 1380Z" fill="#568AFF"/>
<path opacity="0.541829" fill-rule="evenodd" clip-rule="evenodd" d="M1065.47 -208.915C1015.51 74.4538 1204.72 344.675 1488.08 394.64C1639.57 421.352 1578.44 33.6298 1690.77 -54.2125C1788.56 -130.685 2068.39 103.907 2091.64 -27.9738C2141.61 -311.343 1952.4 -581.564 1669.03 -631.529C1385.66 -681.495 1115.44 -492.284 1065.47 -208.915Z" fill="#568AFF"/>
<path opacity="0.6" fill-rule="evenodd" clip-rule="evenodd" d="M420.512 -233.946C188.27 -149.417 68.5245 107.378 153.054 339.62C198.243 463.777 460.396 251.791 573.979 297.623C672.861 337.522 618.534 646.419 726.62 607.079C958.863 522.55 1078.61 265.755 994.079 33.5125C909.549 -198.73 652.755 -318.475 420.512 -233.946Z" fill="#568AFF"/>
<path fill-rule="evenodd" clip-rule="evenodd" d="M2207.38 1031.96C2262.52 719.221 2053.7 420.992 1740.96 365.848C1573.77 336.368 1641.24 764.276 1517.27 861.223C1409.34 945.622 1100.51 686.715 1074.85 832.264C1019.7 1145 1228.53 1443.23 1541.26 1498.38C1854 1553.52 2152.23 1344.7 2207.38 1031.96Z" fill="#568AFF"/>
</svg>
