<svg width="15" height="17" viewBox="0 0 15 17" fill="none" xmlns="http://www.w3.org/2000/svg">
<path d="M2.47377 14.5407C0.794643 12.8047 0.823103 10.0441 2.50223 8.3365L8.47879 2.21763C9.73103 0.936942 11.7801 0.936942 13.0608 2.21763C14.2846 3.49833 14.3131 5.57589 13.0608 6.85658L7.85268 12.1786C6.99888 13.0324 5.60435 13.0324 4.77902 12.1501C3.95368 11.2963 3.98214 9.93025 4.80748 9.10491L8.90569 4.92132C9.07645 4.75056 9.36105 4.7221 9.56027 4.92132L10.1864 5.54743C10.3856 5.71819 10.3856 6.00279 10.2148 6.20201L6.11663 10.3571C5.97433 10.4994 5.97433 10.7556 6.08817 10.8979C6.23047 11.0117 6.42969 11.0117 6.54353 10.8979L11.7517 5.57589C12.2924 5.0067 12.2924 4.06752 11.7517 3.49833C11.2109 2.95759 10.3287 2.95759 9.78795 3.49833L3.81138 9.61719C2.81529 10.6133 2.81529 12.264 3.78292 13.26C4.75056 14.2561 6.31585 14.2561 7.28348 13.26L12.1786 8.25112C12.3493 8.08036 12.6339 8.08036 12.8047 8.25112L13.4593 8.90569C13.6585 9.07645 13.6585 9.36105 13.4877 9.53181L8.59263 14.5407C6.88504 16.2768 4.1529 16.2483 2.47377 14.5407Z" fill="#9D9D9D"/>
</svg>
