<svg width="12" height="15" viewBox="0 0 12 15" fill="none" xmlns="http://www.w3.org/2000/svg">
<path d="M11.1436 3.7221V3.89286H7.5007V0.25H7.67146C7.84221 0.25 8.01297 0.33538 8.15527 0.477679L10.9159 3.23828C11.0582 3.38058 11.1436 3.55134 11.1436 3.7221ZM7.27302 4.80357H11.1436V14.1384C11.1436 14.5368 10.8305 14.8214 10.4605 14.8214H0.898019C0.499581 14.8214 0.214983 14.5368 0.214983 14.1384V0.933036C0.214983 0.563058 0.499581 0.25 0.898019 0.25H6.58998V4.12054C6.58998 4.51897 6.87458 4.80357 7.27302 4.80357ZM3.40248 5.25893C2.66253 5.25893 2.03641 5.88504 2.03641 6.625C2.03641 7.39342 2.66253 7.99107 3.40248 7.99107C4.1709 7.99107 4.76855 7.39342 4.76855 6.625C4.76855 5.88504 4.1709 5.25893 3.40248 5.25893ZM9.32213 12.0893V8.90179L8.21219 7.79185C8.06989 7.64955 7.84221 7.64955 7.72838 7.79185L4.76855 10.7232L3.65862 9.61328C3.51632 9.47098 3.3171 9.47098 3.1748 9.58482L2.06487 10.7232L2.03641 12.0893H9.32213Z" fill="#9D9D9D"/>
</svg>
