<svg width="17" height="17" viewBox="0 0 17 17" fill="none" xmlns="http://www.w3.org/2000/svg">
<path d="M7.64575 0.5H9.02075V8.75H7.64575V0.5ZM5.58325 0.972656V2.47656C4.35148 2.99219 3.34888 3.82292 2.57544 4.96875C1.83065 6.11458 1.45825 7.375 1.45825 8.75C1.45825 10.6406 2.13143 12.2591 3.47778 13.6055C4.82414 14.9518 6.44263 15.625 8.33325 15.625C10.2239 15.625 11.8424 14.9518 13.1887 13.6055C14.5351 12.2591 15.2083 10.6406 15.2083 8.75C15.2083 7.375 14.8215 6.11458 14.0481 4.96875C13.3033 3.82292 12.315 2.99219 11.0833 2.47656V0.972656C12.7161 1.54557 14.0338 2.54818 15.0364 3.98047C16.0676 5.38411 16.5833 6.97396 16.5833 8.75C16.5833 11.013 15.7668 12.9609 14.134 14.5938C12.5299 16.1979 10.5963 17 8.33325 17C6.07023 17 4.12231 16.1979 2.4895 14.5938C0.885335 12.9609 0.083252 11.013 0.083252 8.75C0.083252 6.97396 0.584554 5.38411 1.58716 3.98047C2.61841 2.54818 3.95044 1.54557 5.58325 0.972656Z" fill="#202224"/>
</svg>
