<svg width="19" height="19" viewBox="0 0 19 19" fill="none" xmlns="http://www.w3.org/2000/svg">
<path d="M7.39966 0.8125H7.95825H10.7083H11.2668L11.3958 1.37109L11.7825 3.39062C12.4127 3.64844 12.9999 4.00651 13.5442 4.46484L15.5637 3.77734L16.1223 3.60547L16.3801 4.07812L17.7551 6.48438L18.0129 6.95703L17.6262 7.34375L16.0793 8.67578C16.1653 9.19141 16.2083 9.54948 16.2083 9.75C16.2083 9.95052 16.1653 10.3086 16.0793 10.8242L17.6262 12.1562L18.0129 12.543L17.7551 13.0156L16.3801 15.4219L16.1223 15.8945L15.5637 15.7227L13.5442 15.0352C12.9999 15.4935 12.4127 15.8516 11.7825 16.1094L11.3958 18.1289L11.2668 18.6875H10.7083H7.95825H7.39966L7.27075 18.1289L6.88403 16.1094C6.25382 15.8516 5.66659 15.4935 5.12231 15.0352L3.10278 15.7227L2.54419 15.8945L2.28638 15.4219L0.911377 13.0156L0.653564 12.543L1.04028 12.1562L2.58716 10.8242C2.50122 10.3086 2.45825 9.95052 2.45825 9.75C2.45825 9.54948 2.50122 9.19141 2.58716 8.67578L1.04028 7.34375L0.653564 6.95703L0.911377 6.48438L2.28638 4.07812L2.54419 3.60547L3.10278 3.77734L5.12231 4.46484C5.66659 4.00651 6.25382 3.64844 6.88403 3.39062L7.27075 1.37109L7.39966 0.8125ZM8.51685 2.1875L8.1731 3.99219L8.08716 4.37891L7.70044 4.50781C6.927 4.76562 6.2395 5.16667 5.63794 5.71094L5.29419 5.96875L4.95044 5.88281L3.18872 5.28125L2.37231 6.65625L3.74731 7.85938L4.09106 8.11719L3.96216 8.54688C3.87622 8.91927 3.83325 9.32031 3.83325 9.75C3.83325 10.1797 3.87622 10.5807 3.96216 10.9531L4.09106 11.3828L3.74731 11.6406L2.37231 12.8438L3.18872 14.2188L4.95044 13.6172L5.29419 13.5312L5.63794 13.7891C6.2395 14.3333 6.927 14.7344 7.70044 14.9922L8.08716 15.1211L8.1731 15.5078L8.51685 17.3125H10.1497L10.4934 15.5078L10.5793 15.1211L10.9661 14.9922C11.7395 14.7344 12.427 14.3333 13.0286 13.7891L13.3723 13.5312L13.7161 13.6172L15.4778 14.2188L16.2942 12.8438L14.9192 11.6406L14.6184 11.3828L14.7043 10.9531C14.7903 10.5807 14.8333 10.1797 14.8333 9.75C14.8333 9.32031 14.7903 8.91927 14.7043 8.54688L14.5754 8.11719L14.9192 7.85938L16.2942 6.65625L15.4778 5.28125L13.7161 5.88281L13.3723 5.96875L13.0286 5.71094C12.427 5.16667 11.7395 4.76562 10.9661 4.50781L10.5793 4.37891L10.4934 3.99219L10.1497 2.1875H8.51685ZM6.88403 7.34375C7.57153 6.65625 8.38794 6.3125 9.33325 6.3125C10.2786 6.3125 11.0806 6.65625 11.7395 7.34375C12.427 8.0026 12.7708 8.80469 12.7708 9.75C12.7708 10.6953 12.427 11.5117 11.7395 12.1992C11.0806 12.8581 10.2786 13.1875 9.33325 13.1875C8.38794 13.1875 7.57153 12.8581 6.88403 12.1992C6.22518 11.5117 5.89575 10.6953 5.89575 9.75C5.89575 8.80469 6.22518 8.0026 6.88403 7.34375ZM10.7942 8.28906C10.3931 7.88802 9.90617 7.6875 9.33325 7.6875C8.76034 7.6875 8.27336 7.88802 7.87231 8.28906C7.47127 8.6901 7.27075 9.17708 7.27075 9.75C7.27075 10.3229 7.47127 10.8099 7.87231 11.2109C8.27336 11.612 8.76034 11.8125 9.33325 11.8125C9.90617 11.8125 10.3931 11.612 10.7942 11.2109C11.1952 10.8099 11.3958 10.3229 11.3958 9.75C11.3958 9.17708 11.1952 8.6901 10.7942 8.28906Z" fill="#202224"/>
</svg>
