<svg width="16" height="16" viewBox="0 0 16 16" fill="none" xmlns="http://www.w3.org/2000/svg">
  <path d="M11.3333 5.33301H14.6666C15.0346 5.33301 15.3333 5.03434 15.3333 4.66634V1.33301" stroke="black" stroke-width="1.33333" stroke-miterlimit="10" />
  <path d="M11.3333 15.333H8C8 13.9997 10.6667 13.333 10.6667 11.9997C10.6667 11.2637 10.0693 10.6663 9.33333 10.6663C8.59733 10.6663 8 11.2637 8 11.9997" stroke="black" stroke-width="1.33333" stroke-miterlimit="10" />
  <path class="stroke" d="M15.3334 13.333H13.3334C12.9654 13.333 12.6667 13.0343 12.6667 12.6663V9.99967" stroke="black" stroke-width="1.33333" stroke-miterlimit="10" />
  <path d="M15.3333 10V16" stroke="black" stroke-width="1.33333" stroke-miterlimit="10" />
  <path d="M6 14.359C3.298 13.5077 1.33333 10.979 1.33333 7.99966C1.33333 4.32366 4.324 1.333 8 1.333C10.5173 1.333 12.7933 2.72633 13.94 4.96966L15.1273 4.36299C13.7513 1.67166 11.0207 -0.000337299 8 -0.000337299C3.58867 -0.000337299 0 3.58833 0 7.99966C0 11.719 2.55533 14.845 6 15.7363V14.359Z" fill="black" />
  <path d="M8.00008 4V8H4.66675" stroke="black" stroke-width="1.33333" stroke-miterlimit="10" />
</svg>
