<svg width="20" height="15" viewBox="0 0 20 15" fill="none" xmlns="http://www.w3.org/2000/svg">
<path d="M18.5403 0.015625L19.0559 2.9375H17.6379L17.4231 1.60547L9.64575 2.9375H1.48169L18.5403 0.015625ZM0.708252 3.625H1.39575H2.427H19.2708H19.9583V4.3125V13.9375V14.625H19.2708H1.39575H0.708252V13.9375V5.34375V4.3125V3.625ZM4.10278 5C4.13143 5.14323 4.14575 5.25781 4.14575 5.34375C4.14575 5.83073 3.97388 6.24609 3.63013 6.58984C3.31502 6.90495 2.91398 7.0625 2.427 7.0625C2.34106 7.0625 2.22648 7.04818 2.08325 7.01953V11.2305C2.22648 11.2018 2.34106 11.1875 2.427 11.1875C2.91398 11.1875 3.31502 11.3594 3.63013 11.7031C3.97388 12.0182 4.14575 12.4193 4.14575 12.9062C4.14575 12.9922 4.13143 13.1068 4.10278 13.25H16.5637C16.5351 13.1068 16.5208 12.9922 16.5208 12.9062C16.5208 12.4193 16.6783 12.0182 16.9934 11.7031C17.3372 11.3594 17.7525 11.1875 18.2395 11.1875C18.3254 11.1875 18.44 11.2018 18.5833 11.2305V7.01953C18.44 7.04818 18.3254 7.0625 18.2395 7.0625C17.7525 7.0625 17.3372 6.90495 16.9934 6.58984C16.6783 6.24609 16.5208 5.83073 16.5208 5.34375C16.5208 5.25781 16.5351 5.14323 16.5637 5H4.10278ZM7.88403 6.71875C8.57153 6.03125 9.38794 5.6875 10.3333 5.6875C11.2786 5.6875 12.0806 6.03125 12.7395 6.71875C13.427 7.3776 13.7708 8.17969 13.7708 9.125C13.7708 10.0703 13.427 10.8867 12.7395 11.5742C12.0806 12.2331 11.2786 12.5625 10.3333 12.5625C9.38794 12.5625 8.57153 12.2331 7.88403 11.5742C7.22518 10.8867 6.89575 10.0703 6.89575 9.125C6.89575 8.17969 7.22518 7.3776 7.88403 6.71875ZM11.7942 7.66406C11.3931 7.26302 10.9062 7.0625 10.3333 7.0625C9.76034 7.0625 9.27336 7.26302 8.87231 7.66406C8.47127 8.0651 8.27075 8.55208 8.27075 9.125C8.27075 9.69792 8.47127 10.1849 8.87231 10.5859C9.27336 10.987 9.76034 11.1875 10.3333 11.1875C10.9062 11.1875 11.3931 10.987 11.7942 10.5859C12.1952 10.1849 12.3958 9.69792 12.3958 9.125C12.3958 8.55208 12.1952 8.0651 11.7942 7.66406Z" fill="#202224"/>
</svg>
