<svg width="36" height="36" viewBox="0 0 36 36" fill="none" xmlns="http://www.w3.org/2000/svg">
<g clip-path="url(#clip0_14_75)">
<path d="M18 36C27.9411 36 36 27.9411 36 18C36 8.05887 27.9411 0 18 0C8.05887 0 0 8.05887 0 18C0 27.9411 8.05887 36 18 36Z" fill="#F3BA2F"/>
<path d="M14.2348 16.4531L18 12.6879L21.7653 16.4566L23.9555 14.2664L18 8.30742L12.0446 14.2629L14.2348 16.4531Z" fill="white"/>
<path d="M8.30786 17.9982L10.4979 15.8081L12.6881 17.9982L10.498 20.1883L8.30786 17.9982Z" fill="white"/>
<path d="M14.2348 19.5469L18 23.3121L21.7652 19.5434L23.959 21.7336H23.9555L18 27.6926L12.0445 21.7371L12.041 21.7336L14.2348 19.5469Z" fill="white"/>
<path d="M23.311 18.002L25.5011 15.8118L27.6912 18.0019L25.5012 20.192L23.311 18.002Z" fill="white"/>
<path d="M20.2219 18L18 15.7746L16.3583 17.4199L16.1684 17.6063L15.7782 17.9965L15.7747 18L15.7782 18.0035L18 20.2254L20.2219 18Z" fill="white"/>
</g>
<defs>
<clipPath id="clip0_14_75">
<rect width="36" height="36" fill="white"/>
</clipPath>
</defs>
</svg>
