<svg width="36" height="36" viewBox="0 0 36 36" fill="none" xmlns="http://www.w3.org/2000/svg">
<g clip-path="url(#clip0_12_19)">
<path d="M18 0C27.9407 0 36 8.05932 36 18C36 27.9407 27.9403 36 18 36C8.05968 36 0 27.9428 0 18C0 8.05716 8.05824 0 18 0Z" fill="#53AE94"/>
<path d="M20.2216 15.6017V12.924H26.3448V8.84412H9.67105V12.924H15.795V15.5995C10.818 15.8281 7.07581 16.8138 7.07581 17.9946C7.07581 19.1754 10.8198 20.1611 15.795 20.3911V28.9681H20.223V20.3904C25.191 20.1611 28.9256 19.1761 28.9256 17.9964C28.9256 16.8167 25.191 15.8317 20.223 15.6024M20.223 19.6639V19.6618C20.0981 19.6697 19.4562 19.7082 18.027 19.7082C16.8844 19.7082 16.0805 19.6758 15.7972 19.661V19.6646C11.4001 19.4699 8.11801 18.7042 8.11801 17.788C8.11801 16.8718 11.4005 16.1071 15.7972 15.912V18.9018C16.0852 18.9216 16.9088 18.9702 18.0457 18.9702C19.4112 18.9702 20.0977 18.9133 20.2237 18.9018V15.912C24.6121 16.1075 27.8867 16.8739 27.8867 17.7869C27.8867 18.6998 24.6107 19.4666 20.2237 19.6621" fill="white"/>
</g>
<defs>
<clipPath id="clip0_12_19">
<rect width="36" height="36" fill="white"/>
</clipPath>
</defs>
</svg>
