<?xml version="1.0" encoding="utf-8"?><svg viewBox="0 0 1988.8 2000" xmlns="http://www.w3.org/2000/svg" xmlns:xlink="http://www.w3.org/1999/xlink"><style>:root>svg{display:none}:root>svg:target{display:block}</style><svg viewBox="0 0 6 4" id="arrow" xmlns="http://www.w3.org/2000/svg"><path d="M3 2.793L.732.146a.387.387 0 00-.606 0 .56.56 0 000 .708l2.571 3a.387.387 0 00.606 0l2.571-3a.56.56 0 000-.708.387.387 0 00-.606 0L3 2.793z"/></svg><svg viewBox="0 0 14 8" id="arrow-change" xmlns="http://www.w3.org/2000/svg"><path d="M9.667 0l1.526 1.527L7.94 4.78 5.273 2.113.333 7.06l.94.94 4-4L7.94 6.667l4.2-4.194L13.667 4V0h-4z"/></svg><svg viewBox="0 0 12 8" id="arrow-filters" xmlns="http://www.w3.org/2000/svg"><path d="M1.415 7.415L6 2.83l4.585 4.585L12 6 6 0 0 6l1.415 1.415z"/></svg><svg viewBox="0 0 12 8" id="arrow-select" xmlns="http://www.w3.org/2000/svg"><path d="M1.062 1.94l4.369 5.097a.75.75 0 001.138 0l4.368-5.098a.75.75 0 00-.569-1.238H1.631a.75.75 0 00-.569 1.238z"/></svg><svg viewBox="0 0 1920 1070" id="bg" xmlns="http://www.w3.org/2000/svg"><path fill-rule="evenodd" clip-rule="evenodd" d="M473.5 1380c247.147 0 447.5-200.35 447.5-447.5 0-132.124-318.847-22.584-409.905-104.5-79.272-71.313 77.428-343-37.595-343C226.353 485 26 685.353 26 932.5c0 247.15 200.353 447.5 447.5 447.5z"/><path opacity=".542" fill-rule="evenodd" clip-rule="evenodd" d="M1065.47-208.915c-49.96 283.369 139.25 553.59 422.61 603.555 151.49 26.712 90.36-361.01 202.69-448.852 97.79-76.473 377.62 158.119 400.87 26.238 49.97-283.369-139.24-553.59-422.61-603.555-283.37-49.966-553.59 139.245-603.56 422.614z"/><path opacity=".6" fill-rule="evenodd" clip-rule="evenodd" d="M420.512-233.946C188.27-149.417 68.524 107.378 153.054 339.62c45.189 124.157 307.342-87.829 420.925-41.997 98.882 39.899 44.555 348.796 152.641 309.456 232.243-84.529 351.99-341.324 267.459-573.566-84.53-232.243-341.324-351.988-573.567-267.459z"/><path fill-rule="evenodd" clip-rule="evenodd" d="M2207.38 1031.96c55.14-312.739-153.68-610.968-466.42-666.112-167.19-29.48-99.72 398.428-223.69 495.375-107.93 84.399-416.76-174.508-442.42-28.959-55.15 312.736 153.68 610.966 466.41 666.116 312.74 55.14 610.97-153.68 666.12-466.42z"/></svg><svg viewBox="0 0 2308 2321" id="bg2" xmlns="http://www.w3.org/2000/svg"><path fill-rule="evenodd" clip-rule="evenodd" d="M473.5 2102c247.147 0 447.5-200.35 447.5-447.5 0-132.12-318.847-22.58-409.905-104.5-79.272-71.31 77.428-343-37.595-343C226.353 1207 26 1407.35 26 1654.5S226.353 2102 473.5 2102z"/><path opacity=".542" fill-rule="evenodd" clip-rule="evenodd" d="M1065.47 513.085c-49.96 283.369 139.25 553.585 422.62 603.555 151.48 26.71 90.35-361.01 202.68-448.852 97.79-76.473 377.62 158.119 400.87 26.238 49.97-283.369-139.24-553.59-422.61-603.555-283.37-49.966-553.59 139.245-603.56 422.614z"/><path opacity=".6" fill-rule="evenodd" clip-rule="evenodd" d="M420.512 488.054C188.27 572.583 68.524 829.378 153.054 1061.62c45.189 124.16 307.342-87.829 420.925-42 98.882 39.9 44.555 348.8 152.641 309.46 232.243-84.53 351.99-341.325 267.459-573.568-84.53-232.242-341.324-351.987-573.567-267.458z"/><path fill-rule="evenodd" clip-rule="evenodd" d="M2207.38 1753.96c55.14-312.74-153.68-610.97-466.42-666.11-167.19-29.48-99.72 398.43-223.69 495.37-107.93 84.4-416.76-174.51-442.42-28.96-55.15 312.74 153.68 610.97 466.41 666.12 312.74 55.14 610.97-153.68 666.12-466.42z"/></svg><svg viewBox="0 0 18 16" id="bin" xmlns="http://www.w3.org/2000/svg"><path clip-rule="evenodd" d="M13.2 15.4H4.8a1.2 1.2 0 01-1.2-1.2V3.4h10.8v10.8a1.2 1.2 0 01-1.2 1.2z"/><path d="M7.2 11.8V7m3.6 4.8V7M1.2 3.4h15.6"/><path clip-rule="evenodd" d="M10.8 1H7.2A1.2 1.2 0 006 2.2v1.2h6V2.2A1.2 1.2 0 0010.8 1z"/></svg><svg viewBox="0 0 8 6" id="check" xmlns="http://www.w3.org/2000/svg"><path d="M1.292 2.909a.4.4 0 00-.565.565l2 2a.4.4 0 00.565 0l4.4-4.4A.4.4 0 107.127.51L3.009 4.626 1.292 2.909z"/></svg><svg viewBox="0 0 15 17" id="clip" xmlns="http://www.w3.org/2000/svg"><path d="M2.474 14.54a4.45 4.45 0 01.028-6.204L8.48 2.218c1.25-1.281 3.3-1.281 4.58 0 1.224 1.28 1.252 3.358 0 4.639l-5.208 5.322c-.854.853-2.249.853-3.074-.029a2.182 2.182 0 01.028-3.045l4.1-4.185a.455.455 0 01.654 0l.626.626c.2.171.2.456.029.655l-4.098 4.155a.43.43 0 00-.029.54c.142.115.342.115.456 0l5.208-5.321c.54-.57.54-1.508 0-2.078a1.391 1.391 0 00-1.964 0l-5.977 6.12c-.996.995-.996 2.646-.028 3.642a2.424 2.424 0 003.5 0l4.896-5.009c.17-.17.455-.17.626 0l.654.655c.2.17.2.455.029.626L8.593 14.54a4.27 4.27 0 01-6.12 0z"/></svg><svg viewBox="0 0 10 10" id="close" xmlns="http://www.w3.org/2000/svg"><path fill-rule="evenodd" clip-rule="evenodd" d="M.647.646a.5.5 0 01.706 0L5 4.293 8.647.646a.5.5 0 11.706.707L5.707 5l3.646 3.646a.5.5 0 11-.706.707L5 5.706 1.353 9.353a.5.5 0 01-.706-.707L4.293 5 .647 1.353a.5.5 0 010-.707z"/></svg><svg viewBox="0 0 18 17" id="dashboard" xmlns="http://www.w3.org/2000/svg"><path d="M3.156 2.95C4.79 1.315 6.737.5 9 .5c2.263 0 4.197.816 5.8 2.45 1.634 1.603 2.45 3.537 2.45 5.8s-.816 4.21-2.45 5.844C13.198 16.198 11.264 17 9 17s-4.21-.802-5.844-2.406C1.552 12.96.75 11.013.75 8.75c0-2.263.802-4.197 2.406-5.8zm10.7.945C12.508 2.548 10.89 1.875 9 1.875c-1.89 0-3.51.673-4.855 2.02-1.347 1.346-2.02 2.964-2.02 4.855 0 1.89.673 3.51 2.02 4.855 1.346 1.347 2.964 2.02 4.855 2.02 1.89 0 3.51-.673 4.855-2.02 1.347-1.346 2.02-2.964 2.02-4.855 0-1.89-.673-3.51-2.02-4.855zM8.483 2.777A.703.703 0 019 2.562c.2 0 .358.072.473.215a.572.572 0 01.214.473c0 .2-.071.372-.214.516-.115.114-.272.171-.473.171a.8.8 0 01-.516-.171.8.8 0 01-.171-.516c0-.2.057-.358.171-.473zM4.617 4.41a.657.657 0 01.473-.215c.2 0 .372.072.515.215a.572.572 0 01.215.473.65.65 0 01-.215.472.703.703 0 01-.515.215.657.657 0 01-.473-.215.74.74 0 01-.172-.472c0-.2.058-.358.172-.473zm7.778-.043l.988.988-3.051 3.051c.029.115.043.23.043.344 0 .372-.143.702-.43.988a1.286 1.286 0 01-.945.387c-.372 0-.702-.129-.988-.387a1.434 1.434 0 01-.387-.988c0-.372.129-.688.387-.945.286-.287.616-.43.988-.43.115 0 .23.014.344.043l3.05-3.05zm-9.41 3.91a.703.703 0 01.515-.214c.2 0 .358.071.473.214a.572.572 0 01.215.473c0 .2-.072.372-.215.516-.115.114-.272.171-.473.171a.8.8 0 01-.516-.171.8.8 0 01-.171-.516c0-.2.057-.358.171-.473zm11 0a.703.703 0 01.515-.214c.2 0 .358.071.473.214a.572.572 0 01.214.473c0 .2-.071.372-.214.516-.115.114-.273.171-.473.171a.8.8 0 01-.516-.171.8.8 0 01-.171-.516c0-.2.057-.358.171-.473zm-9.368 3.868a.657.657 0 01.473-.215.7.7 0 01.515.215.703.703 0 01.215.515c0 .172-.071.33-.215.473a.8.8 0 01-.515.172.74.74 0 01-.473-.172.74.74 0 01-.172-.473.8.8 0 01.172-.515zm7.778 0a.657.657 0 01.472-.215c.2 0 .358.071.473.215a.703.703 0 01.215.515c0 .172-.072.33-.215.473-.115.114-.272.172-.473.172a.74.74 0 01-.473-.172.657.657 0 01-.214-.473.7.7 0 01.215-.515z"/></svg><svg viewBox="0 0 12 15" id="file" xmlns="http://www.w3.org/2000/svg"><path d="M11.144 3.722v.17H7.5V.25h.17c.171 0 .342.085.484.228l2.76 2.76c.143.143.229.313.229.484zM7.273 4.804h3.87v9.334a.674.674 0 01-.683.683H.899a.658.658 0 01-.683-.683V.933A.673.673 0 01.898.25H6.59v3.87c0 .399.285.684.683.684zm-3.87.455c-.74 0-1.367.626-1.367 1.366 0 .768.627 1.366 1.366 1.366a1.35 1.35 0 001.367-1.366c0-.74-.598-1.366-1.367-1.366zm5.92 6.83V8.902l-1.11-1.11c-.143-.142-.37-.142-.485 0l-2.96 2.931-1.11-1.11a.354.354 0 00-.483-.028l-1.11 1.138-.029 1.366h7.286z"/></svg><svg viewBox="0 0 22 25" id="filter" xmlns="http://www.w3.org/2000/svg"><path clip-rule="evenodd" d="M11 10.625c5.385 0 9.75-2.015 9.75-4.5s-4.365-4.5-9.75-4.5-9.75 2.015-9.75 4.5 4.365 4.5 9.75 4.5z"/><path d="M1.25 6.125a9.747 9.747 0 007.5 9.479v6.271a2.25 2.25 0 004.5 0v-6.271a9.747 9.747 0 007.5-9.479"/></svg><svg viewBox="0 0 17 17" id="logout" xmlns="http://www.w3.org/2000/svg"><path d="M7.646.5H9.02v8.25H7.646V.5zM5.583.973v1.504c-1.232.515-2.234 1.346-3.008 2.492A6.796 6.796 0 001.458 8.75c0 1.89.673 3.51 2.02 4.855 1.346 1.347 2.965 2.02 4.855 2.02 1.89 0 3.51-.673 4.856-2.02 1.346-1.346 2.02-2.964 2.02-4.855a6.616 6.616 0 00-1.16-3.781c-.746-1.146-1.734-1.977-2.966-2.492V.973c1.633.573 2.95 1.575 3.953 3.007 1.032 1.404 1.547 2.994 1.547 4.77 0 2.263-.816 4.21-2.449 5.844C12.53 16.198 10.596 17 8.334 17c-2.264 0-4.212-.802-5.845-2.406C.885 12.96.083 11.013.083 8.75c0-1.776.502-3.366 1.504-4.77C2.618 2.548 3.95 1.546 5.583.973z"/></svg><svg viewBox="0 0 3 15" id="more" xmlns="http://www.w3.org/2000/svg"><path fill-rule="evenodd" clip-rule="evenodd" d="M1.5 3a1.5 1.5 0 100-3 1.5 1.5 0 000 3zm0 6a1.5 1.5 0 100-3 1.5 1.5 0 000 3zm0 6a1.5 1.5 0 100-3 1.5 1.5 0 000 3z"/></svg><svg viewBox="0 0 20 20" id="notification" xmlns="http://www.w3.org/2000/svg"><path d="M12.857 15.082c1.863-.22 3.694-.66 5.454-1.31A8.967 8.967 0 0116 7.75V7A6 6 0 004 7v.75a8.967 8.967 0 01-2.312 6.022c1.733.64 3.56 1.085 5.455 1.31m5.714 0a24.259 24.259 0 01-5.714 0m5.714 0a3 3 0 11-5.714 0"/></svg><svg viewBox="0 0 854 706" id="oval" xmlns="http://www.w3.org/2000/svg"><path fill-rule="evenodd" clip-rule="evenodd" d="M1141.38 667.96C1196.52 355.221 987.699 56.992 674.96 1.848c-167.19-29.48-99.72 398.428-223.693 495.375C343.34 581.622 34.512 322.715 8.847 468.264c-55.144 312.74 153.678 610.966 466.417 666.116 312.74 55.14 610.966-153.681 666.116-466.42z"/></svg><svg viewBox="0 0 18 18" id="pencil" xmlns="http://www.w3.org/2000/svg"><g opacity=".6" stroke-width="1.2" stroke-linecap="round" stroke-linejoin="round"><path clip-rule="evenodd" d="M9.697 10.424l-2.475.354.353-2.476 6.364-6.364a1.5 1.5 0 112.122 2.122l-6.364 6.364z"/><path d="M13.232 2.646l2.121 2.12M13.5 10.5v5a1 1 0 01-1 1h-10a1 1 0 01-1-1v-10a1 1 0 011-1h5"/></g></svg><svg viewBox="0 0 12 16" id="reset" xmlns="http://www.w3.org/2000/svg"><path d="M6 3.625v-3l-3.75 3.75L6 8.125v-3c2.482 0 4.5 2.018 4.5 4.5s-2.018 4.5-4.5 4.5a4.504 4.504 0 01-4.5-4.5H0c0 3.315 2.685 6 6 6s6-2.685 6-6-2.685-6-6-6z"/></svg><svg viewBox="0 0 14 13" id="send" xmlns="http://www.w3.org/2000/svg"><path d="M12.156.57L1.305 6.852c-.22.109-.32.28-.305.515a.54.54 0 00.352.492l2.484 1.032 6.726-5.93c.063-.047.126-.04.188.023.063.047.07.102.023.164L5.125 10.04v1.875c0 .188.055.328.164.422.125.11.266.164.422.164.172 0 .312-.07.422-.21l1.476-1.806 2.93 1.22a.46.46 0 00.469-.024.556.556 0 00.305-.399L13 1.156a.509.509 0 00-.258-.539.507.507 0 00-.586-.047z"/></svg><svg viewBox="0 0 19 19" id="settings" xmlns="http://www.w3.org/2000/svg"><path d="M7.4.813h3.867l.129.558.386 2.02a6.6 6.6 0 011.762 1.074l2.02-.688.558-.172.258.473 1.375 2.406.258.473-.387.387-1.547 1.332c.086.515.13.873.13 1.074 0 .2-.044.559-.13 1.074l1.547 1.332.387.387-.258.473-1.375 2.406-.258.473-.558-.172-2.02-.688a6.613 6.613 0 01-1.761 1.074l-.387 2.02-.13.558H7.4l-.13-.558-.386-2.02a6.612 6.612 0 01-1.762-1.074l-2.02.688-.558.171-.258-.472-1.375-2.406-.257-.473.386-.387 1.547-1.332c-.086-.515-.129-.873-.129-1.074 0-.2.043-.559.13-1.074L1.04 7.344l-.386-.387.257-.473 1.375-2.406.258-.473.559.172 2.02.688a6.612 6.612 0 011.76-1.075l.387-2.02.13-.557zm1.117 1.375l-.344 1.804-.086.387-.387.129A5.752 5.752 0 005.638 5.71l-.344.258-.344-.086-1.76-.602-.817 1.375L3.747 7.86l.344.258-.129.43a5.343 5.343 0 00-.129 1.203c0 .43.043.83.13 1.203l.128.43-.344.258-1.375 1.203.817 1.375 1.761-.602.344-.086.344.258A5.755 5.755 0 007.7 14.993l.387.13.086.386.344 1.805h1.633l.343-1.805.086-.387.387-.129a5.753 5.753 0 002.063-1.203l.343-.258.344.086 1.762.602.816-1.375-1.375-1.203-.3-.258.085-.43a5.34 5.34 0 00.13-1.203c0-.43-.044-.83-.13-1.203l-.129-.43.344-.258 1.375-1.203-.816-1.375-1.762.602-.344.086-.343-.258a5.753 5.753 0 00-2.063-1.203l-.387-.13-.086-.386-.343-1.804H8.517zM6.884 7.343c.688-.688 1.504-1.032 2.45-1.032.945 0 1.747.344 2.405 1.032.688.659 1.032 1.46 1.032 2.406 0 .945-.344 1.762-1.032 2.45-.658.658-1.46.988-2.406.988a3.42 3.42 0 01-2.449-.989 3.42 3.42 0 01-.988-2.449c0-.945.33-1.747.988-2.406zm3.91.945a1.99 1.99 0 00-1.46-.601c-.574 0-1.06.2-1.462.601a1.989 1.989 0 00-.601 1.461c0 .573.2 1.06.601 1.46.401.402.888.602 1.461.602.573 0 1.06-.2 1.461-.601a1.99 1.99 0 00.602-1.461c0-.573-.2-1.06-.602-1.46z"/></svg><svg viewBox="0 0 16 16" id="support" xmlns="http://www.w3.org/2000/svg"><path d="M11.333 5.333h3.334a.667.667 0 00.666-.667V1.333m-4 14H8c0-1.333 2.667-2 2.667-3.333A1.334 1.334 0 008 12"/><path class="vstroke" d="M15.333 13.333h-2a.667.667 0 01-.666-.667V10"/><path d="M15.333 10v6M6 14.359a6.678 6.678 0 01-4.667-6.36A6.674 6.674 0 018 1.334a6.644 6.644 0 015.94 3.637l1.187-.607A7.972 7.972 0 008 0C3.589 0 0 3.588 0 8c0 3.719 2.555 6.845 6 7.736V14.36z"/><path d="M8 4v4H4.667"/></svg><svg viewBox="0 0 16 16" id="time-twenty-four_3914471_1" xmlns="http://www.w3.org/2000/svg"><g clip-path="url(#wa)"><mask id="wa" maskUnits="userSpaceOnUse" x="0" y="0" width="16" height="16"><path d="M0 0h16v16H0V0z"/></mask><g mask="url(#wa)"><path d="M11.333 5.333h3.334a.667.667 0 00.666-.667V1.333m-4 14H8c0-1.333 2.667-2 2.667-3.333A1.334 1.334 0 008 12m7.333 1.333h-2a.667.667 0 01-.666-.667V10m2.666 0v6"/><path d="M6 14.359a6.678 6.678 0 01-4.667-6.36A6.674 6.674 0 018 1.334a6.644 6.644 0 015.94 3.637l1.187-.607A7.972 7.972 0 008 0C3.589 0 0 3.588 0 8c0 3.719 2.555 6.845 6 7.736V14.36z"/><path d="M8 4v4H4.667"/></g></g><defs><clipPath id="wa"><path d="M0 0h16v16H0z"/></clipPath></defs></svg><svg viewBox="0 0 20 15" id="transactions" xmlns="http://www.w3.org/2000/svg"><path d="M18.54.016l.516 2.921h-1.418l-.215-1.332-7.777 1.333H1.482L18.54.015zM.708 3.625h19.25v11H.708v-11zM4.103 5c.028.143.043.258.043.344 0 .487-.172.902-.516 1.246-.315.315-.716.473-1.203.473-.086 0-.2-.015-.344-.043v4.21c.143-.028.258-.043.344-.043.487 0 .888.172 1.203.516.344.315.516.716.516 1.203 0 .086-.015.2-.043.344h12.46a1.85 1.85 0 01-.042-.344c0-.487.157-.888.472-1.203a1.699 1.699 0 011.59-.473V7.02a1.779 1.779 0 01-1.59-.43 1.778 1.778 0 01-.43-1.59H4.104zm3.781 1.719c.688-.688 1.504-1.032 2.45-1.032.945 0 1.747.344 2.405 1.032.688.659 1.032 1.46 1.032 2.406 0 .945-.344 1.762-1.032 2.45-.658.658-1.46.988-2.406.988a3.42 3.42 0 01-2.449-.989 3.42 3.42 0 01-.988-2.449c0-.945.33-1.747.988-2.406zm3.91.945a1.989 1.989 0 00-1.46-.601c-.574 0-1.06.2-1.462.601a1.989 1.989 0 00-.601 1.461c0 .573.2 1.06.601 1.46.401.402.888.602 1.461.602.573 0 1.06-.2 1.461-.601a1.99 1.99 0 00.602-1.461c0-.573-.2-1.06-.602-1.46z"/></svg><svg viewBox="0 0 16 16" id="widget" xmlns="http://www.w3.org/2000/svg"><path d="M.77.188h15.127v15.125H.77V.186zm1.376 1.375v5.5h5.5v-5.5h-5.5zm6.875 0v5.5h5.5v-5.5h-5.5zM2.146 8.438v5.5h5.5v-5.5h-5.5zm6.875 0v5.5h5.5v-5.5h-5.5z"/></svg></svg>